<svg height="16" viewBox="0 0 4.2333333 4.2333333" width="16" xmlns="http://www.w3.org/2000/svg"><path d="m1.5875.26458c-.14658 0-.26458.118-.26458.26459v.79375c0 .14658.118.26458.26458.26458h.26458v.262a.26461.26461 0 0 0 -.083716.0165l-.5426.18086-.18087-.5426a.26461.26461 0 0 0 -.262-.18448.26461.26461 0 0 0 -.2403.3514l.26458.79375a.26461.26461 0 0 0 .33486.16743l.44545-.14831v.16174c0 .0108.00495.02.0062.0305l-1.2113.80771a.26461.26461 0 1 0 .29352.44028l1.3379-.89194.39532.79014a.26461.26461 0 0 0 .32039.1328l.79375-.26458a.26461.26461 0 1 0 -.16743-.50175l-.57619.19172-.25787-.51625c.072998-.047.12402-.12495.12402-.21859v-.26458h.36587l.1912.38292a.26461.26461 0 1 0 .47336-.23668l-.26458-.52916a.26461.26461 0 0 0 -.23668-.14625h-.79375v-.26458h.26458c.14658 0 .26458-.118.26458-.26458v-.79375c0-.14659-.118-.26459-.26458-.26459zm0 .52917h.26458v.52917h-.26458z" fill="#fff" fill-opacity=".99608"/></svg>
